<svg width="34" height="34" viewBox="0 0 34 34" fill="none" xmlns="http://www.w3.org/2000/svg">
<g filter="url(#filter0_d_2_1243)">
<path fill-rule="evenodd" clip-rule="evenodd" d="M11 11.6696C11 14.2485 13.0907 16.3391 15.6696 16.3391C18.2485 16.3391 20.3391 14.2485 20.3391 11.6696C20.3391 9.09063 18.2485 7 15.6696 7C13.0907 7 11 9.09063 11 11.6696ZM9.00002 11.6696C9.00002 15.3531 11.9861 18.3391 15.6696 18.3391C17.1507 18.3391 18.519 17.8564 19.6258 17.0396L22.4657 19.8795C22.8563 20.2701 23.4894 20.2701 23.88 19.8795C24.2705 19.489 24.2705 18.8559 23.88 18.4653L21.0399 15.6253C21.8565 14.5186 22.3391 13.1504 22.3391 11.6696C22.3391 7.98606 19.3531 5 15.6696 5C11.9861 5 9.00002 7.98606 9.00002 11.6696Z" fill="#F5F5F5"/>
</g>
<defs>
<filter id="filter0_d_2_1243" x="0" y="0" width="33.1729" height="33.1725" filterUnits="userSpaceOnUse" color-interpolation-filters="sRGB">
<feFlood flood-opacity="0" result="BackgroundImageFix"/>
<feColorMatrix in="SourceAlpha" type="matrix" values="0 0 0 0 0 0 0 0 0 0 0 0 0 0 0 0 0 0 127 0" result="hardAlpha"/>
<feOffset dy="4"/>
<feGaussianBlur stdDeviation="4.5"/>
<feColorMatrix type="matrix" values="0 0 0 0 0 0 0 0 0 0 0 0 0 0 0 0 0 0 0.11 0"/>
<feBlend mode="normal" in2="BackgroundImageFix" result="effect1_dropShadow_2_1243"/>
<feBlend mode="normal" in="SourceGraphic" in2="effect1_dropShadow_2_1243" result="shape"/>
</filter>
</defs>
</svg>
